# xmcd CD database file
# Copyright (C) 1995-1998 Ti Kan
#
# Track frame offsets:
#	150
#	14285
#	31170
#	44530
#	55355
#	76747
#	95490
#	114195
#	130065
#	156977
#	168870
#	213272
#	236812
#	255192
#	280835
#	307672
#
# Disc length: 4453 seconds
#
# Revision: 3
# Processed by: cddbd v1.4b41PL1 Copyright (c) Steve Scherf et al.
# Submitted via: CDex 1.30Release
#
DISCID=c0116310
DTITLE=B. B. King - How Blue Can You Get?  Classic Live Performances - 1964 
DTITLE=to 1994-Disc 1 of 2
DYEAR=1996
DGENRE=Blues
TTITLE0=Everyday I Have the Blues
TTITLE1=Sweet Little Angel
TTITLE2=Please Love Me
TTITLE3=You Upset Me
TTITLE4=Gambler's Blues
TTITLE5=Buzz Me
TTITLE6=Baby Get Lost
TTITLE7=Blind Love
TTITLE8=Don't Answer the Door
TTITLE9=Please Accept My Love
TTITLE10=Worry, Worry
TTITLE11=How Blue Can You Get?
TTITLE12=Eyesight to the Blind
TTITLE13=Chains and Things*
TTITLE14=Sweet Sixteen *
TTITLE15=The Thrill is Gone *
EXTD=YEAR: 1996 ID3G:   0
EXTT0=
EXTT1=
EXTT2=
EXTT3=
EXTT4=
EXTT5=
EXTT6=
EXTT7=
EXTT8=
EXTT9=
EXTT10=
EXTT11=
EXTT12=
EXTT13=
EXTT14=
EXTT15=
PLAYORDER=
